<svg xmlns="http://www.w3.org/2000/svg" viewBox="0 0 100 100">
  <defs>
    <linearGradient id="grad1" x1="0%" y1="0%" x2="100%" y2="100%">
      <stop offset="0%" style="stop-color:#4A90D9;stop-opacity:1" />
      <stop offset="100%" style="stop-color:#2E5A8C;stop-opacity:1" />
    </linearGradient>
  </defs>
  <rect width="100" height="100" rx="15" ry="15" fill="url(#grad1)"/>
  <!-- Gear Icon -->
  <g transform="translate(50, 50)">
    <path d="M0,-35 L4,-32 L4,-28 L8,-26 L11,-30 L16,-27 L14,-22 L17,-18 L22,-19 L24,-13 L19,-11 L19,-7 L24,-4 L22,3 L17,1 L14,6 L16,11 L11,14 L8,10 L4,12 L4,16 L0,19 L-4,16 L-4,12 L-8,10 L-11,14 L-16,11 L-14,6 L-17,1 L-22,3 L-24,-4 L-19,-7 L-19,-11 L-24,-13 L-22,-19 L-17,-18 L-14,-22 L-16,-27 L-11,-30 L-8,-26 L-4,-28 L-4,-32 Z" 
          fill="#ffffff" stroke="none"/>
    <circle cx="0" cy="-8" r="12" fill="#4A90D9"/>
    <!-- Wrench inside gear -->
    <path d="M-4,-16 L-2,-8 L-4,-4 L0,-2 L4,-4 L2,-8 L4,-16 L2,-18 L0,-16 L-2,-18 Z" 
          fill="#ffffff" stroke="none"/>
  </g>
  <!-- Shield shape for "Guard" -->
  <path d="M50,65 L35,58 L35,70 C35,80 50,90 50,90 C50,90 65,80 65,70 L65,58 Z" 
        fill="#ffffff" stroke="none" opacity="0.3"/>
</svg>

